<svg width="70" height="48" viewBox="0 0 70 48" fill="none" xmlns="http://www.w3.org/2000/svg">
<path d="M46.3062 47.4715H0V0.884277H46.3062V16.8248H44.1596V3.0439H2.1466V45.3117H44.1596V31.4282H46.3062V47.4715Z" fill="#F64D03"/>
<path d="M9.46094 19.3931H11.6115V23.5179L14.6899 19.3931H17.2708L13.7355 23.7613L17.553 28.8598H14.8244L11.6115 24.3564V28.8598H9.46094V19.3931Z" fill="#F64D03"/>
<path d="M23.1622 26.9079C24.8969 26.9079 25.7967 25.6747 25.7967 24.1262C25.7967 22.4467 24.636 21.3446 23.1622 21.3446C21.6492 21.3446 20.5277 22.4467 20.5277 24.1262C20.5277 25.7009 21.7016 26.9079 23.1622 26.9079ZM23.1622 19.3765C25.9401 19.3765 28.0139 21.2002 28.0139 24.1262C28.0139 26.9079 25.9401 28.8762 23.1622 28.8762C20.3844 28.8762 18.3105 27.0523 18.3105 24.1262C18.3105 21.4627 20.2538 19.3765 23.1622 19.3765Z" fill="#F64D03"/>
<path d="M37.061 28.8597L32.5984 23.1795V28.8597H30.582V19.3955H32.3025L36.7655 25.1001L36.7626 19.3959H38.7788L38.7817 28.8597H37.061Z" fill="#F64D03"/>
<path d="M41.3711 19.3931H49.1675V21.4217H46.3446V28.8598H44.1938V21.4217H41.3711V19.3931Z" fill="#F64D03"/>
<path d="M59.6005 24.7877C59.6005 27.682 57.7724 28.8586 55.7562 28.8586C53.3366 28.8586 51.6562 27.4654 51.6562 24.6932V19.397H53.807V24.2333C53.807 25.7075 54.2507 26.8299 55.7562 26.8299C57.06 26.8299 57.4499 25.8698 57.4499 24.355V19.397H59.6005V24.7877Z" fill="#F64D03"/>
<path d="M64.3363 21.4528V23.5488H65.1158C65.9359 23.5488 66.581 23.2514 66.581 22.4534C66.581 21.926 66.3137 21.4506 65.2786 21.4506C64.9561 21.4506 64.78 21.4392 64.3363 21.4528ZM62.1855 28.8586V19.397C62.7098 19.397 65.1158 19.397 65.3848 19.397C67.9522 19.397 68.8662 20.682 68.8662 22.4265C68.8662 24.1846 67.791 24.9012 67.2801 25.1582L69.9999 28.8586H67.392L65.1293 25.5774H64.3363V28.8586H62.1855Z" fill="#F64D03"/>
</svg>
