<svg width="257" height="65" viewBox="0 0 257 65" fill="none" xmlns="http://www.w3.org/2000/svg">
<path d="M69.7963 56.2105C69.7963 57.4022 69.1807 57.9984 67.9509 57.9984H66.6706C66.4566 57.9984 66.3496 57.8321 66.3496 57.4979V57.3339C66.3496 56.9955 66.4566 56.8273 66.6706 56.8273H67.9111C68.5598 56.8273 68.8848 56.6008 68.8848 56.1483V55.7059H66.2081C64.9175 55.7059 64.2715 55.0955 64.2715 53.8747V50.735C64.2715 50.3779 64.3773 50.1994 64.5886 50.1994H64.858C65.0693 50.1994 65.1751 50.3779 65.1751 50.735V53.829C65.1751 54.3002 65.5331 54.5348 66.2504 54.5348H68.8848V50.735C68.8848 50.3779 68.9918 50.1994 69.2071 50.1994H69.4779C69.6905 50.1994 69.7963 50.3779 69.7963 50.735V56.2105ZM76.855 50.8555C76.855 51.1897 76.748 51.3579 76.5339 51.3579H73.3118C72.5298 51.3579 72.1388 51.6031 72.1388 52.0952V55.9572C72.1388 56.3268 72.3118 56.5843 72.6579 56.7296C72.8097 56.7941 73.07 56.8273 73.44 56.8273H76.514C76.7256 56.8273 76.8314 56.9955 76.8314 57.3339V57.4918C76.8314 57.8302 76.7256 57.9984 76.514 57.9984H73.4413C73.07 57.9984 72.8073 57.9816 72.6552 57.9504C72.3898 57.8924 72.1438 57.7699 71.9167 57.5788C71.4623 57.1969 71.235 56.6652 71.235 55.9843V52.1033C71.235 51.6176 71.3791 51.1981 71.6685 50.8494C71.914 50.5545 72.2021 50.3615 72.5349 50.2722C72.7187 50.2242 72.9723 50.1994 73.2986 50.1994H76.5339C76.748 50.1994 76.855 50.3656 76.855 50.6976V50.8555ZM82.9296 50.8555C82.9296 51.1897 82.8226 51.3579 82.6086 51.3579H80.6057V57.4937C80.6057 57.8302 80.5 57.9984 80.2871 57.9984H80.0205C79.8077 57.9984 79.7021 57.8302 79.7021 57.4937V51.3579H77.7084C77.4944 51.3579 77.3876 51.1897 77.3876 50.8555V50.6976C77.3876 50.3656 77.4944 50.1994 77.7084 50.1994H82.6086C82.8226 50.1994 82.9296 50.3656 82.9296 50.6976V50.8555ZM90.1163 57.2736C90.1244 57.3339 90.1283 57.3983 90.1283 57.4625C90.1283 57.6745 90.0833 57.8466 89.9935 57.9775C89.9037 58.1083 89.7913 58.1727 89.6552 58.1727C89.514 58.1727 89.3871 58.0397 89.2734 57.7719L88.4704 55.9427H84.6522L83.8505 57.7802C83.8254 57.8572 83.8 57.913 83.7779 57.9443C83.7211 58.0294 83.6522 58.0731 83.5715 58.0731C83.3985 58.0731 83.2718 57.9755 83.1884 57.7802C83.1528 57.6951 83.1343 57.6142 83.1343 57.5373C83.1343 57.4854 83.1397 57.4418 83.15 57.4086L86.0105 50.5316C86.1345 50.2368 86.3183 50.0956 86.5638 50.1121C86.8546 50.1288 87.029 50.268 87.0858 50.5316L90.1163 57.2736ZM87.9338 54.7716L86.5613 51.5906L85.1821 54.7716H87.9338ZM96.9993 57.4937C96.9993 57.8302 96.8923 57.9984 96.6782 57.9984H96.4246C96.2108 57.9984 96.1038 57.8302 96.1038 57.4937V54.7217H91.7203V57.4937C91.7203 57.8302 91.6133 57.9984 91.3992 57.9984H91.1338C90.9224 57.9984 90.8167 57.8302 90.8167 57.4937V50.6976C90.8167 50.3656 90.9224 50.1994 91.1338 50.1994H91.3992C91.6133 50.1994 91.7203 50.3656 91.7203 50.6976V53.5506H96.1038V50.6976C96.1038 50.3656 96.2108 50.1994 96.4246 50.1994H96.6782C96.8923 50.1994 96.9993 50.3656 96.9993 50.6976V57.4937ZM104.066 55.9053C104.066 57.3007 103.3 57.9984 101.767 57.9984H100.36C99.2639 57.9984 98.5571 57.6142 98.24 56.8479C98.1238 56.5676 98.0655 56.2562 98.0655 55.9115V52.3173C98.0655 50.9054 98.8292 50.1994 100.356 50.1994H101.767C102.457 50.1994 102.963 50.299 103.288 50.4984C103.807 50.814 104.066 51.4204 104.066 52.3173V55.9053ZM103.162 55.8721V52.3443C103.162 51.686 102.704 51.3579 101.788 51.3579H100.351C99.4302 51.3579 98.9692 51.686 98.9692 52.3443V55.8721C98.9692 56.5095 99.4302 56.8273 100.351 56.8273H101.791C102.705 56.8273 103.162 56.5095 103.162 55.8721ZM111.356 55.924C111.356 56.8209 111.043 57.4293 110.415 57.749C110.224 57.8466 109.999 57.9172 109.741 57.961C109.6 57.9858 109.476 57.9984 109.37 57.9984H105.53C105.318 57.9984 105.213 57.8302 105.213 57.4937V50.6976C105.213 50.3656 105.318 50.1994 105.53 50.1994H109.258C109.678 50.1994 109.999 50.239 110.218 50.3157C110.53 50.4237 110.79 50.6334 110.999 50.9406C111.237 51.2854 111.356 51.6944 111.356 52.1636V52.7658C111.356 53.237 111.25 53.6276 111.037 53.9411C111.007 53.9846 110.991 54.0365 110.991 54.0926C110.991 54.13 110.999 54.1693 111.015 54.2151L111.037 54.2692C111.25 54.5763 111.356 54.9669 111.356 55.4381V55.924ZM110.468 52.8261L110.452 52.1678C110.434 51.628 110.043 51.3579 109.279 51.3579H106.14V53.5506H109.309C109.868 53.5506 110.23 53.4094 110.394 53.1251C110.446 53.0356 110.471 52.936 110.468 52.8261ZM110.452 55.4631C110.458 54.9688 110.082 54.7217 109.328 54.7217H106.116V56.8273H109.272C109.974 56.8273 110.366 56.5821 110.452 56.0922V55.4631ZM117.707 57.0535C117.852 57.174 117.926 57.3358 117.926 57.5373C117.926 57.8447 117.804 57.9984 117.561 57.9984H117.24C117.189 57.9984 117.138 57.9775 117.089 57.9381L113.286 54.78V57.4937C113.286 57.8302 113.178 57.9984 112.962 57.9984H112.718C112.505 57.9984 112.398 57.8302 112.398 57.4937V50.6976C112.398 50.3656 112.505 50.1994 112.718 50.1994H112.962C113.178 50.1994 113.286 50.3656 113.286 50.6976V53.3202L116.95 50.2535C117.019 50.2181 117.07 50.1994 117.101 50.1994H117.441C117.684 50.1994 117.805 50.3531 117.805 50.6625C117.805 50.8658 117.733 51.0257 117.589 51.1442L114.077 54.0407L117.707 57.0535ZM125.55 57.2736C125.558 57.3339 125.562 57.3983 125.562 57.4625C125.562 57.6745 125.517 57.8466 125.427 57.9775C125.337 58.1083 125.225 58.1727 125.089 58.1727C124.947 58.1727 124.821 58.0397 124.707 57.7719L123.904 55.9427H120.086L119.284 57.7802C119.259 57.8572 119.234 57.913 119.211 57.9443C119.155 58.0294 119.086 58.0731 119.005 58.0731C118.832 58.0731 118.705 57.9755 118.622 57.7802C118.586 57.6951 118.568 57.6142 118.568 57.5373C118.568 57.4854 118.573 57.4418 118.584 57.4086L121.444 50.5316C121.568 50.2368 121.752 50.0956 121.997 50.1121C122.288 50.1288 122.462 50.268 122.519 50.5316L125.55 57.2736ZM123.367 54.7716L121.995 51.5906L120.616 54.7716H123.367ZM135.648 50.8555C135.648 51.1897 135.541 51.3579 135.327 51.3579H133.325V57.4937C133.325 57.8302 133.219 57.9984 133.006 57.9984H132.739C132.527 57.9984 132.421 57.8302 132.421 57.4937V51.3579H130.427C130.213 51.3579 130.106 51.1897 130.106 50.8555V50.6976C130.106 50.3656 130.213 50.1994 130.427 50.1994H135.327C135.541 50.1994 135.648 50.3656 135.648 50.6976V50.8555ZM142.835 57.2736C142.843 57.3339 142.847 57.3983 142.847 57.4625C142.847 57.6745 142.802 57.8466 142.712 57.9775C142.623 58.1083 142.51 58.1727 142.374 58.1727C142.233 58.1727 142.106 58.0397 141.992 57.7719L141.189 55.9427H137.371L136.569 57.7802C136.544 57.8572 136.519 57.913 136.497 57.9443C136.44 58.0294 136.371 58.0731 136.29 58.0731C136.117 58.0731 135.991 57.9755 135.907 57.7802C135.872 57.6951 135.853 57.6142 135.853 57.5373C135.853 57.4854 135.859 57.4418 135.869 57.4086L138.729 50.5316C138.853 50.2368 139.037 50.0956 139.283 50.1121C139.573 50.1288 139.748 50.268 139.805 50.5316L142.835 57.2736ZM140.653 54.7716L139.28 51.5906L137.901 54.7716H140.653ZM149.148 57.1096C149.255 57.2508 149.307 57.4045 149.307 57.5663C149.307 57.855 149.185 57.9984 148.94 57.9984C148.909 58.0065 148.864 58.0107 148.805 58.0107C148.64 58.0107 148.524 57.9652 148.457 57.8737L146.196 54.8776L143.917 57.8737C143.851 57.9652 143.731 58.0107 143.558 58.0107C143.506 58.0107 143.466 58.0065 143.435 57.9984C143.191 57.9984 143.068 57.853 143.068 57.5601C143.068 57.4022 143.121 57.2508 143.226 57.1096L145.549 54.0387L143.304 51.0798C143.196 50.9386 143.142 50.7871 143.142 50.6251C143.142 50.3405 143.263 50.1994 143.509 50.1994H143.784C143.864 50.1994 143.932 50.2368 143.989 50.3096L146.197 53.2019L148.393 50.3135C148.453 50.2368 148.521 50.1994 148.599 50.1994H148.866C149.108 50.1994 149.229 50.3428 149.229 50.6312C149.229 50.7933 149.176 50.9428 149.071 51.0798L146.838 54.0324L149.148 57.1096ZM155.86 55.9053C155.86 57.3007 155.094 57.9984 153.561 57.9984H152.154C151.058 57.9984 150.351 57.6142 150.034 56.8479C149.918 56.5676 149.86 56.2562 149.86 55.9115V52.3173C149.86 50.9054 150.623 50.1994 152.151 50.1994H153.561C154.251 50.1994 154.757 50.299 155.082 50.4984C155.601 50.814 155.86 51.4204 155.86 52.3173V55.9053ZM154.956 55.8721V52.3443C154.956 51.686 154.498 51.3579 153.582 51.3579H152.145C151.224 51.3579 150.763 51.686 150.763 52.3443V55.8721C150.763 56.5095 151.224 56.8273 152.145 56.8273H153.585C154.499 56.8273 154.956 56.5095 154.956 55.8721ZM161.661 50.704C161.661 50.3676 161.554 50.1994 161.34 50.1994H159.389C158.822 50.1994 158.441 50.2306 158.251 50.2909C157.363 50.5752 156.92 51.2271 156.92 52.2489V57.4999C156.92 57.8321 157.025 57.9984 157.237 57.9984H157.503C157.719 57.9984 157.826 57.8321 157.826 57.4999V52.2489C157.826 51.8313 158.036 51.5616 158.456 51.4391C158.624 51.3911 158.933 51.3663 159.381 51.3663H161.34C161.554 51.3663 161.661 51.1981 161.661 50.8617V50.704ZM168.506 53.1519C168.506 53.9266 168.257 54.4871 167.762 54.836C167.401 55.0913 166.939 55.2202 166.376 55.2202H163.234V57.4937C163.234 57.8302 163.127 57.9984 162.913 57.9984H162.648C162.436 57.9984 162.331 57.8302 162.331 57.4937V50.6976C162.331 50.3656 162.436 50.1994 162.648 50.1994H166.419C166.904 50.1994 167.335 50.3096 167.712 50.5275C168.241 50.8368 168.506 51.306 168.506 51.9393V53.1519ZM167.61 53.1001V52.0327C167.61 51.5822 167.216 51.3579 166.427 51.3579H163.234V54.0491H166.432C166.801 54.0491 167.075 53.995 167.253 53.885C167.491 53.7375 167.61 53.4758 167.61 53.1001ZM176.194 57.2736C176.202 57.3339 176.206 57.3983 176.206 57.4625C176.206 57.6745 176.161 57.8466 176.072 57.9775C175.982 58.1083 175.869 58.1727 175.733 58.1727C175.592 58.1727 175.465 58.0397 175.352 57.7719L174.548 55.9427H170.73L169.928 57.7802C169.903 57.8572 169.878 57.913 169.856 57.9443C169.799 58.0294 169.73 58.0731 169.65 58.0731C169.476 58.0731 169.35 57.9755 169.267 57.7802C169.231 57.6951 169.213 57.6142 169.213 57.5373C169.213 57.4854 169.218 57.4418 169.228 57.4086L172.088 50.5316C172.213 50.2368 172.396 50.0956 172.642 50.1121C172.933 50.1288 173.107 50.268 173.164 50.5316L176.194 57.2736ZM174.012 54.7716L172.639 51.5906L171.26 54.7716H174.012ZM180.978 50.5607C181.667 50.5607 182.174 50.6603 182.497 50.8597C183.017 51.1752 183.276 51.7817 183.276 52.6766V55.6562C183.276 57.0516 182.509 57.749 180.978 57.749H180.533V58.0999C180.536 58.4386 180.429 58.6087 180.212 58.6087H179.946C179.735 58.6087 179.629 58.4386 179.629 58.0999V57.749H179.18C178.085 57.749 177.378 57.3649 177.061 56.5988C176.945 56.3207 176.887 56.0071 176.887 55.6623V52.6766C176.887 51.2667 177.65 50.5607 179.176 50.5607H179.629V50.27C179.629 49.9399 179.735 49.7759 179.946 49.7759H180.212C180.431 49.7759 180.538 49.9399 180.533 50.27V50.5607H180.978ZM179.172 51.7192C178.251 51.7192 177.79 52.0475 177.79 52.7036V55.623C177.79 56.2604 178.251 56.5782 179.172 56.5782H179.629V51.7192H179.172ZM180.533 56.5782H181.002C181.915 56.5782 182.372 56.2604 182.372 55.623V52.7036C182.372 52.0475 181.914 51.7192 180.998 51.7192H180.533V56.5782ZM190.33 55.9053C190.33 57.3007 189.564 57.9984 188.032 57.9984H186.625C185.528 57.9984 184.821 57.6142 184.504 56.8479C184.388 56.5676 184.33 56.2562 184.33 55.9115V52.3173C184.33 50.9054 185.093 50.1994 186.621 50.1994H188.032C188.721 50.1994 189.227 50.299 189.552 50.4984C190.071 50.814 190.33 51.4204 190.33 52.3173V55.9053ZM189.427 55.8721V52.3443C189.427 51.686 188.968 51.3579 188.053 51.3579H186.615C185.695 51.3579 185.233 51.686 185.233 52.3443V55.8721C185.233 56.5095 185.695 56.8273 186.615 56.8273H188.055C188.97 56.8273 189.427 56.5095 189.427 55.8721ZM197.62 55.924C197.62 56.8209 197.307 57.4293 196.68 57.749C196.488 57.8466 196.263 57.9172 196.006 57.961C195.864 57.9858 195.74 57.9984 195.634 57.9984H191.794C191.583 57.9984 191.477 57.8302 191.477 57.4937V50.6976C191.477 50.3656 191.583 50.1994 191.794 50.1994H195.522C195.942 50.1994 196.263 50.239 196.483 50.3157C196.794 50.4237 197.055 50.6334 197.263 50.9406C197.501 51.2854 197.62 51.6944 197.62 52.1636V52.7658C197.62 53.237 197.514 53.6276 197.302 53.9411C197.271 53.9846 197.255 54.0365 197.255 54.0926C197.255 54.13 197.263 54.1693 197.279 54.2151L197.302 54.2692C197.514 54.5763 197.62 54.9669 197.62 55.4381V55.924ZM196.732 52.8261L196.716 52.1678C196.698 51.628 196.307 51.3579 195.543 51.3579H192.404V53.5506H195.574C196.132 53.5506 196.494 53.4094 196.658 53.1251C196.71 53.0356 196.735 52.936 196.732 52.8261ZM196.716 55.4631C196.722 54.9688 196.347 54.7217 195.592 54.7217H192.381V56.8273H195.537C196.238 56.8273 196.631 56.5821 196.716 56.0922V55.4631Z" fill="#5B5B5B" stroke="#898989" stroke-width="0.0377953" stroke-miterlimit="22.9256"/>
<path d="M213.452 53.152C213.452 53.9266 213.204 54.4871 212.708 54.836C212.348 55.0913 211.885 55.2202 211.323 55.2202H208.181V57.4937C208.181 57.8302 208.074 57.9984 207.86 57.9984H207.594C207.383 57.9984 207.277 57.8302 207.277 57.4937V50.6976C207.277 50.3656 207.383 50.1994 207.594 50.1994H211.366C211.851 50.1994 212.282 50.3096 212.658 50.5275C213.188 50.8368 213.452 51.3061 213.452 51.9393V53.152ZM212.557 53.1001V52.0328C212.557 51.5822 212.163 51.3579 211.374 51.3579H208.181V54.0491H211.378C211.748 54.0491 212.022 53.995 212.2 53.885C212.438 53.7375 212.557 53.4758 212.557 53.1001ZM218.56 50.5607C219.248 50.5607 219.755 50.6603 220.079 50.8597C220.598 51.1752 220.857 51.7817 220.857 52.6766V55.6562C220.857 57.0516 220.091 57.749 218.56 57.749H218.114V58.0999C218.117 58.4386 218.01 58.6088 217.793 58.6088H217.528C217.317 58.6088 217.211 58.4386 217.211 58.0999V57.749H216.762C215.666 57.749 214.959 57.3649 214.643 56.5988C214.526 56.3207 214.468 56.0071 214.468 55.6623V52.6766C214.468 51.2667 215.232 50.5607 216.758 50.5607H217.211V50.27C217.211 49.9399 217.317 49.7759 217.528 49.7759H217.793C218.013 49.7759 218.12 49.9399 218.114 50.27V50.5607H218.56ZM216.754 51.7192C215.833 51.7192 215.372 52.0475 215.372 52.7036V55.623C215.372 56.2604 215.833 56.5782 216.754 56.5782H217.211V51.7192H216.754ZM218.114 56.5782H218.584C219.496 56.5782 219.954 56.2604 219.954 55.623V52.7036C219.954 52.0475 219.495 51.7192 218.58 51.7192H218.114V56.5782ZM232.339 55.9053C232.339 57.3007 231.574 57.9984 230.044 57.9984H228.636C227.535 57.9984 226.826 57.6597 226.509 56.9829C226.39 56.7274 226.33 56.4348 226.33 56.1067L226.342 52.3173C226.348 50.9054 227.112 50.1994 228.636 50.1994H230.044C231.574 50.1994 232.339 50.9032 232.339 52.3111V55.9053ZM231.435 55.8596V52.3443C231.435 51.686 230.978 51.3579 230.064 51.3579H228.624C228.239 51.3579 227.954 51.3975 227.769 51.4743C227.417 51.6196 227.242 51.9125 227.242 52.3505V55.8721C227.242 56.5095 227.703 56.8273 228.624 56.8273H230.064C230.534 56.8273 230.87 56.767 231.07 56.6446C231.314 56.4992 231.435 56.2376 231.435 55.8596ZM239.927 57.4937C239.927 57.8302 239.82 57.9984 239.607 57.9984H239.228C239.018 57.9984 238.913 57.8302 238.913 57.4937V56.0175H233.67C233.365 56.0175 233.213 55.7455 233.213 55.2015V50.704C233.213 50.3676 233.319 50.1994 233.529 50.1994H233.912C234.122 50.1994 234.228 50.3676 234.228 50.704V54.672H238.913V50.704C238.913 50.3676 239.018 50.1994 239.228 50.1994H239.607C239.82 50.1994 239.927 50.3676 239.927 50.704V57.4937ZM246.999 55.9053C246.999 57.3007 246.234 57.9984 244.704 57.9984H243.296C242.195 57.9984 241.486 57.6597 241.169 56.9829C241.05 56.7274 240.99 56.4348 240.99 56.1067L241.002 52.3173C241.008 50.9054 241.773 50.1994 243.296 50.1994H244.704C246.234 50.1994 246.999 50.9032 246.999 52.3111V55.9053ZM246.095 55.8596V52.3443C246.095 51.686 245.638 51.3579 244.724 51.3579H243.284C242.9 51.3579 242.614 51.3975 242.429 51.4743C242.078 51.6196 241.902 51.9125 241.902 52.3505V55.8721C241.902 56.5095 242.363 56.8273 243.284 56.8273H244.724C245.194 56.8273 245.53 56.767 245.73 56.6446C245.974 56.4992 246.095 56.2376 246.095 55.8596ZM254.199 52.772C254.199 53.2744 254.027 53.6959 253.682 54.0324C254.027 54.429 254.199 54.8567 254.199 55.3156V55.9966C254.199 56.7235 253.945 57.2591 253.439 57.6078C253.064 57.8675 252.613 57.9984 252.086 57.9984H250.144C249.625 57.9984 249.176 57.8675 248.796 57.6037C248.287 57.2508 248.032 56.7171 248.032 56.0029V55.3156C248.032 54.7716 248.198 54.3439 248.531 54.0324C248.182 53.7645 248.008 53.3411 248.008 52.7597V52.1948C248.008 50.8639 248.759 50.1994 250.261 50.1994H251.966C253.455 50.1994 254.199 50.8617 254.199 52.1887V52.772ZM253.303 52.7513V52.1845C253.303 51.6341 252.858 51.3579 251.967 51.3579H250.259C249.894 51.3579 249.623 51.3872 249.449 51.4433C249.092 51.5616 248.912 51.8107 248.912 52.1906V52.7513C248.912 53.2102 249.333 53.4385 250.175 53.4385H252.052C252.314 53.4385 252.553 53.4011 252.772 53.3285C253.126 53.2122 253.303 53.0192 253.303 52.7513ZM253.303 55.9801V55.3094C253.303 55.0581 253.115 54.867 252.74 54.7384C252.495 54.6533 252.247 54.6095 251.999 54.6095H250.213C249.946 54.6095 249.7 54.6469 249.475 54.7197C249.11 54.838 248.928 55.0333 248.928 55.3094V55.9926C248.928 56.1338 249.02 56.2956 249.204 56.4741C249.447 56.7087 249.76 56.8273 250.143 56.8273H252.088C252.357 56.8273 252.6 56.7793 252.818 56.6819C253.142 56.5344 253.303 56.302 253.303 55.9801Z" fill="#E31E24" stroke="#E31E24" stroke-width="0.0377953" stroke-miterlimit="22.9256"/>
<path fill-rule="evenodd" clip-rule="evenodd" d="M31.9245 0C47.7081 0 60.5032 12.6019 60.5032 28.1469C60.5032 43.692 47.7081 56.2939 31.9245 56.2939C16.141 56.2939 3.3457 43.692 3.3457 28.1469C3.3457 12.6019 16.141 0 31.9245 0Z" fill="#FF0000"/>
<path fill-rule="evenodd" clip-rule="evenodd" d="M32.0661 9.89596C42.3004 9.89596 50.5968 18.0673 50.5968 28.1469C50.5968 38.2266 42.3004 46.3977 32.0661 46.3977C21.8316 46.3977 13.5352 38.2266 13.5352 28.1469C13.5352 18.0673 21.8316 9.89596 32.0661 9.89596Z" fill="#898989"/>
<path fill-rule="evenodd" clip-rule="evenodd" d="M31.9232 16.4365C38.4898 16.4365 43.8132 21.6794 43.8132 28.1469C43.8132 34.6142 38.4898 39.8571 31.9232 39.8571C25.3568 39.8571 20.0332 34.6142 20.0332 28.1469C20.0332 21.6794 25.3568 16.4365 31.9232 16.4365Z" fill="url(#paint0_radial_228_403)"/>
<path fill-rule="evenodd" clip-rule="evenodd" d="M29.2422 6.8315H34.8863V12.9604H29.2422V6.8315Z" fill="#898989"/>
<path fill-rule="evenodd" clip-rule="evenodd" d="M29.2441 43.7461H34.8882V49.875H29.2441V43.7461Z" fill="#898989"/>
<path fill-rule="evenodd" clip-rule="evenodd" d="M47.4844 30.9264V25.3675H53.7074V30.9264H47.4844Z" fill="#898989"/>
<path fill-rule="evenodd" clip-rule="evenodd" d="M10.168 31.251V25.6921H16.391V31.251H10.168Z" fill="#898989"/>
<path fill-rule="evenodd" clip-rule="evenodd" d="M45.1296 19.5408L41.1387 15.6102L45.5389 11.2763L49.5298 15.2072L45.1296 19.5408Z" fill="#898989"/>
<path fill-rule="evenodd" clip-rule="evenodd" d="M41.1406 40.6817L45.1317 36.7508L49.532 41.0845L45.5409 45.0153L41.1406 40.6817Z" fill="#898989"/>
<path fill-rule="evenodd" clip-rule="evenodd" d="M14.4023 15.4098L18.3932 11.479L22.7935 15.8129L18.8026 19.7435L14.4023 15.4098Z" fill="#898989"/>
<path fill-rule="evenodd" clip-rule="evenodd" d="M18.6005 45.9946L14.6094 42.0637L19.0096 37.7301L23.0005 41.6609L18.6005 45.9946Z" fill="#898989"/>
<path d="M1 45.849C1 45.849 8.60412 63.3064 31.9238 63.3701C55.2432 63.4335 61.2509 47.1357 62.8011 45.927L94.9837 45.9562L256 45.3665" stroke="#EC1846" stroke-width="1.88976" stroke-miterlimit="22.9256"/>
<path d="M119.413 37.6194C119.413 38.865 118.797 39.4877 117.567 39.4877H115.998C114.767 39.4877 114.152 38.865 114.152 37.6194V18.944L98.6229 38.0884C97.8 39.1109 96.6845 39.6262 95.2926 39.6262C93.8772 39.6262 92.7544 39.1188 91.9081 38.0963L76.0794 18.8518V37.6194C76.0794 38.865 75.4563 39.4877 74.2102 39.4877H72.6642C71.4336 39.4877 70.8184 38.865 70.8184 37.6194V13.3775C70.8184 12.5856 71.1414 11.9243 71.7874 11.4018C72.3875 10.9018 73.1026 10.6559 73.9334 10.6559C75.0641 10.6559 76.0332 11.1325 76.8485 12.0859L95.3233 33.952L113.39 12.0397C114.129 11.148 115.167 10.7021 116.505 10.7021C118.444 10.7021 119.413 11.6632 119.413 13.5851V37.6194ZM158.093 24.9873L158.047 25.5947C157.954 26.771 157.339 27.3553 156.193 27.3553H130.835V32.0992C130.835 34.1367 133.088 35.1516 137.595 35.1516H156.193C157.431 35.1516 158.047 35.7743 158.047 37.0275V37.6118C158.047 38.865 157.431 39.4877 156.193 39.4877H137.357C136.772 39.4877 136.042 39.4417 135.172 39.3495C128.773 38.6882 125.574 36.3355 125.574 32.276V17.9753C125.574 15.2689 127.143 13.2622 130.281 11.9398C132.388 11.0557 134.896 10.6096 137.811 10.6096H142.948C144.179 10.6096 144.794 11.2247 144.794 12.455V13.0394C144.794 14.2771 144.179 14.9 142.948 14.9H137.611L136.142 14.9922C132.565 15.215 130.781 16.2069 130.781 17.9677V23.0189H156.216C157.554 23.0189 158.177 23.6726 158.093 24.9873ZM201.596 36.5585L184.428 12.3242C183.605 11.148 182.567 10.5636 181.321 10.5636C180.406 10.5636 179.606 10.8482 178.929 11.417C178.69 11.6169 178.437 11.9091 178.167 12.3011L160.969 36.5738C160.608 37.089 160.431 37.5734 160.431 38.0193C160.431 38.9956 161.116 39.4877 162.485 39.4877H162.708C162.8 39.4877 162.915 39.4877 163.069 39.4877C164.377 39.4877 165.215 39.2187 165.592 38.6806L181.321 16.3992L196.958 38.6806C197.334 39.2187 198.157 39.4877 199.434 39.4877H199.819C199.926 39.4877 200.003 39.4801 200.065 39.4648C201.434 39.3416 202.119 38.8495 202.119 37.9731C202.119 37.5119 201.941 37.0351 201.596 36.5585ZM243.991 36.8044C244.037 37.0275 244.06 37.2658 244.06 37.5041C244.06 38.2883 243.798 38.9265 243.275 39.411C242.752 39.8952 242.098 40.1335 241.306 40.1335C240.483 40.1335 239.745 39.6416 239.084 38.6498L234.407 31.8761H212.179L207.51 38.6806C207.364 38.9649 207.218 39.1727 207.087 39.2878C206.756 39.603 206.356 39.7646 205.887 39.7646C204.88 39.7646 204.141 39.4031 203.657 38.6806C203.449 38.3653 203.342 38.0655 203.342 37.781C203.342 37.5887 203.372 37.4274 203.434 37.3041L220.086 11.84C220.809 10.7481 221.878 10.2253 223.308 10.2867C225.001 10.3482 226.016 10.8634 226.347 11.84L243.991 36.8044ZM231.284 27.5397L223.293 15.761L215.263 27.5397H231.284Z" fill="#727271"/>
<defs>
<radialGradient id="paint0_radial_228_403" cx="0" cy="0" r="1" gradientUnits="userSpaceOnUse" gradientTransform="translate(31.9238 28.145) scale(16.6918 16.6854)">
<stop stop-color="#FEFEFE"/>
<stop offset="1" stop-color="#EC1846"/>
</radialGradient>
</defs>
</svg>
